<svg preserveAspectRatio="none" width="100%" height="100%" overflow="visible" style="display: block;" viewBox="0 0 26.25 26.2499" fill="none" xmlns="http://www.w3.org/2000/svg">
<g id="Group">
<g id="Group_2">
<path id="Vector" d="M24.6119 9.93938C24.4462 9.73986 24.2001 9.62493 23.9403 9.62493H2.31055C2.05078 9.62493 1.80469 9.73986 1.63892 9.93938C1.47229 10.1385 1.40308 10.4008 1.44922 10.6563L3.20093 20.3095C3.45044 21.678 4.73389 22.7499 6.125 22.7499H20.125C21.5161 22.7499 22.8004 21.678 23.0491 20.3095L24.8016 10.6563C24.8478 10.4008 24.7786 10.1385 24.6119 9.93938Z" fill="#E53935"/>
<g id="Group_3">
<path id="Vector_2" d="M13.125 20.1249C12.6414 20.1249 12.25 19.7331 12.25 19.2499V14.8749C12.25 14.3917 12.6414 13.9999 13.125 13.9999C13.6086 13.9999 14 14.3917 14 14.8749V19.2499C14 19.7331 13.6086 20.1249 13.125 20.1249Z" fill="#E0E0E0"/>
</g>
<g id="Group_4">
<path id="Vector_3" d="M8.74914 20.1249C8.3407 20.1249 7.97497 19.8374 7.89209 19.4217L7.01709 15.0467C6.92224 14.5729 7.229 14.1119 7.70325 14.017C8.1792 13.9217 8.63892 14.2298 8.73291 14.7032L9.60791 19.0782C9.70276 19.552 9.396 20.013 8.92175 20.1078C8.86365 20.1194 8.8064 20.1249 8.74914 20.1249Z" fill="#E0E0E0"/>
</g>
<path id="Vector_4" d="M23.625 7.87493H2.625C1.17749 7.87493 0 9.05242 0 10.4999V11.3749C0 11.8581 0.391357 12.2499 0.875 12.2499H25.375C25.8586 12.2499 26.25 11.8581 26.25 11.3749V10.4999C26.25 9.05242 25.0725 7.87493 23.625 7.87493Z" fill="#EF5350"/>
<g id="Group_5">
<path id="Vector_5" d="M5.24915 10.4999C5.07568 10.4999 4.90137 10.4487 4.74841 10.3418C4.35278 10.0646 4.25623 9.51897 4.53308 9.12334L10.6581 0.373343C10.9358 -0.0227141 11.481 -0.118417 11.8766 0.158011C12.2722 0.435294 12.3688 0.980887 12.0919 1.37652L5.96692 10.1265C5.79687 10.37 5.52515 10.4999 5.24915 10.4999Z" fill="#FFCA28"/>
</g>
<g id="Group_6">
<path id="Vector_6" d="M21.0009 10.4999C20.7249 10.4999 20.4531 10.37 20.2831 10.1265L14.1581 1.37652C13.8812 0.980887 13.9778 0.435294 14.3734 0.158011C14.7673 -0.118417 15.3151 -0.0231413 15.5919 0.373343L21.7169 9.12334C21.9938 9.51897 21.8981 10.0646 21.5016 10.3418C21.3495 10.4487 21.1743 10.4999 21.0009 10.4999Z" fill="#FFCA28"/>
</g>
</g>
<path id="Vector_7" d="M20.125 13.9999C16.748 13.9999 14 16.7476 14 20.1249C14 23.5023 16.748 26.2499 20.125 26.2499C23.502 26.2499 26.25 23.5023 26.25 20.1249C26.25 16.7476 23.502 13.9999 20.125 13.9999Z" fill="#0288D1"/>
</g>
</svg>
