<svg width="42" height="42" viewBox="0 0 42 42" fill="none" xmlns="http://www.w3.org/2000/svg">
<path d="M21 1.3125C17.1062 1.3125 13.2998 2.46715 10.0622 4.63044C6.82463 6.79373 4.30123 9.8685 2.81113 13.4659C1.32103 17.0633 0.931152 21.0218 1.6908 24.8408C2.45045 28.6598 4.3255 32.1678 7.07884 34.9212C9.83219 37.6745 13.3402 39.5496 17.1592 40.3092C20.9782 41.0689 24.9367 40.679 28.5341 39.1889C32.1315 37.6988 35.2063 35.1754 37.3696 31.9378C39.5329 28.7002 40.6875 24.8938 40.6875 21C40.6875 15.7785 38.6133 10.771 34.9212 7.07883C31.229 3.38671 26.2215 1.3125 21 1.3125Z" fill="#F0CC25" fill-opacity="0.1"/>
<g clip-path="url(#clip0_86_471)">
<path d="M25.0313 28.2297C25.0457 28.4338 24.9881 28.6365 24.8685 28.8025C23.3675 30.9119 21.124 31.1817 18.9017 30.3938C17.4246 29.8685 15.9569 28.8691 14.7353 27.6332C13.5148 26.3984 12.5356 24.9237 12.0352 23.4477C11.289 21.2481 11.5897 19.0484 13.6837 17.6021C13.85 17.4866 14.0509 17.4316 14.2528 17.4464C14.455 17.4636 14.6445 17.5521 14.7876 17.6959L16.6593 19.5759C16.804 19.7197 16.8921 19.9107 16.9076 20.114C16.923 20.3174 16.8649 20.5195 16.7436 20.6835L15.5351 22.3401C15.6444 23.1256 16.4014 24.2047 17.3259 25.128C18.2826 26.0858 19.3971 26.8571 20.1376 26.9486L21.7966 25.7378C21.9608 25.6165 22.1631 25.5584 22.3667 25.5739C22.5702 25.5893 22.7614 25.6775 22.9053 25.8221L24.7806 27.6902C24.9265 27.8339 25.0156 28.0255 25.0313 28.2297ZM29.9987 21.3004C29.8928 21.1939 29.7668 21.1094 29.6282 21.0517C29.4895 20.994 29.3408 20.9642 29.1906 20.9641H19.3378C19.0344 20.9641 18.7435 21.0846 18.529 21.2991C18.3145 21.5136 18.1939 21.8045 18.1939 22.1079C18.1939 22.4112 18.3145 22.7022 18.529 22.9167C18.7435 23.1312 19.0344 23.2517 19.3378 23.2517H29.1906C29.4169 23.2522 29.6382 23.1854 29.8265 23.0599C30.0148 22.9343 30.1615 22.7557 30.2481 22.5466C30.3347 22.3376 30.3572 22.1075 30.3128 21.8856C30.2684 21.6637 30.1591 21.46 29.9987 21.3004ZM26.4241 16.4554H24.7782C24.7396 16.4555 24.7014 16.448 24.6658 16.4333C24.6301 16.4186 24.5977 16.397 24.5704 16.3697C24.5432 16.3424 24.5216 16.31 24.5068 16.2744C24.4921 16.2387 24.4846 16.2005 24.4847 16.1619V14.516C24.4847 14.487 24.4789 14.4583 24.4676 14.4316C24.4564 14.4049 24.44 14.3806 24.4194 14.3603C24.3992 14.3398 24.3752 14.3236 24.3486 14.3126C24.3221 14.3016 24.2936 14.296 24.2649 14.2961C24.2065 14.2961 24.1505 14.3193 24.1091 14.3605C24.0676 14.4017 24.0442 14.4576 24.0439 14.516V16.1619C24.044 16.2004 24.0365 16.2387 24.0218 16.2743C24.007 16.31 23.9854 16.3424 23.9582 16.3696C23.9309 16.3969 23.8985 16.4185 23.8628 16.4332C23.8272 16.448 23.789 16.4555 23.7504 16.4554H22.1044C22.0754 16.4554 22.0467 16.4612 22.02 16.4724C21.9933 16.4836 21.9691 16.5 21.9487 16.5207C21.9078 16.5622 21.8848 16.6181 21.8845 16.6764C21.8849 16.7346 21.9082 16.7903 21.9493 16.8314C21.9905 16.8726 22.0462 16.8959 22.1044 16.8962H23.7504C23.789 16.8961 23.8272 16.9036 23.8629 16.9183C23.8985 16.933 23.9309 16.9547 23.9582 16.9819C23.9855 17.0092 24.0071 17.0416 24.0218 17.0773C24.0365 17.1129 24.044 17.1511 24.0439 17.1897V18.8356C24.0445 18.894 24.0679 18.9499 24.1093 18.9913C24.1506 19.0326 24.2065 19.0561 24.2649 19.0566C24.2938 19.0566 24.3222 19.0508 24.3488 19.0395C24.3753 19.0283 24.3993 19.0119 24.4194 18.9913C24.4401 18.9709 24.4565 18.9467 24.4677 18.92C24.4789 18.8933 24.4847 18.8646 24.4848 18.8356V17.1898C24.4847 17.1512 24.4922 17.113 24.5069 17.0773C24.5216 17.0417 24.5432 17.0093 24.5705 16.982C24.5978 16.9547 24.6302 16.9331 24.6658 16.9184C24.7015 16.9037 24.7397 16.8962 24.7783 16.8963H26.4241C26.4531 16.8962 26.4818 16.8904 26.5085 16.8792C26.5352 16.868 26.5594 16.8516 26.5798 16.8309C26.6004 16.8108 26.6168 16.7868 26.628 16.7603C26.6393 16.7337 26.6451 16.7052 26.6452 16.6764C26.6446 16.618 26.6211 16.5621 26.5798 16.5208C26.5385 16.4794 26.4826 16.456 26.4241 16.4554V16.4554ZM28.9268 20.3782H19.6017L20.4145 15.0888C20.5048 14.4981 20.7592 13.9551 21.1466 13.5676C21.3317 13.3784 21.5531 13.2283 21.7975 13.1264C22.0419 13.0246 22.3043 12.9729 22.569 12.9747H25.9595C26.2242 12.9729 26.4866 13.0246 26.731 13.1264C26.9754 13.2283 27.1968 13.3784 27.3819 13.5676C27.7693 13.9551 28.0237 14.4981 28.114 15.0888L28.9268 20.3782ZM27.231 16.6764C27.2306 16.4624 27.1455 16.2573 26.9943 16.1058C26.8431 15.9544 26.6381 15.869 26.4241 15.8683H25.0718V14.516C25.0702 14.3028 24.9845 14.0989 24.8332 13.9487C24.6819 13.7986 24.4774 13.7143 24.2643 13.7143C24.0511 13.7143 23.8466 13.7986 23.6953 13.9487C23.5441 14.0989 23.4583 14.3028 23.4568 14.516V15.8683H22.1044C21.8913 15.8699 21.6874 15.9556 21.5372 16.1069C21.387 16.2582 21.3027 16.4627 21.3027 16.6758C21.3027 16.889 21.387 17.0935 21.5372 17.2448C21.6874 17.396 21.8913 17.4818 22.1044 17.4833H23.4569V18.8357C23.4585 19.0488 23.5442 19.2527 23.6955 19.4029C23.8468 19.5531 24.0513 19.6374 24.2644 19.6374C24.4776 19.6374 24.6821 19.5531 24.8334 19.4029C24.9846 19.2527 25.0704 19.0488 25.0719 18.8357V17.4833H26.4241C26.6379 17.4826 26.8428 17.3974 26.9939 17.2462C27.1451 17.095 27.2303 16.8902 27.231 16.6764ZM27.4259 12.8451L28.3409 12.3175C28.4065 12.2777 28.4538 12.2138 28.4728 12.1396C28.4918 12.0653 28.481 11.9865 28.4426 11.9201C28.4042 11.8538 28.3413 11.8051 28.2674 11.7845C28.1936 11.764 28.1146 11.7732 28.0474 11.8102L27.1324 12.3389C27.0987 12.3579 27.0692 12.3835 27.0455 12.414C27.0217 12.4446 27.0043 12.4795 26.9942 12.5168C26.984 12.5542 26.9814 12.5931 26.9864 12.6315C26.9914 12.6698 27.004 12.7068 27.0234 12.7403C27.0428 12.7737 27.0686 12.803 27.0994 12.8264C27.1302 12.8498 27.1653 12.8669 27.2028 12.8766C27.2402 12.8864 27.2792 12.8886 27.3175 12.8832C27.3558 12.8778 27.3926 12.8649 27.4259 12.8451H27.4259ZM25.8537 11.633C25.921 11.6714 26.0008 11.6816 26.0756 11.6613C26.1505 11.6411 26.2142 11.592 26.253 11.5248L26.8578 10.4766C26.8955 10.4096 26.9052 10.3303 26.8848 10.2561C26.8644 10.182 26.8155 10.1189 26.7488 10.0805C26.6821 10.0421 26.603 10.0317 26.5286 10.0513C26.4542 10.071 26.3906 10.1192 26.3516 10.1855L25.7467 11.2337C25.7081 11.3008 25.6977 11.3806 25.7177 11.4554C25.7378 11.5303 25.7867 11.5941 25.8537 11.633H25.8537ZM22.4716 11.4226C22.4908 11.4559 22.5162 11.485 22.5466 11.5084C22.577 11.5318 22.6117 11.549 22.6487 11.559C22.6857 11.569 22.7244 11.5716 22.7624 11.5666C22.8004 11.5617 22.8371 11.5493 22.8703 11.5302C22.9036 11.5111 22.9327 11.4856 22.9561 11.4552C22.9795 11.4248 22.9967 11.3901 23.0067 11.3531C23.0167 11.3161 23.0193 11.2775 23.0143 11.2394C23.0094 11.2014 22.997 11.1647 22.9779 11.1315L22.3195 9.99175C22.3008 9.95765 22.2755 9.92762 22.2451 9.90341C22.2147 9.87921 22.1797 9.86133 22.1423 9.85081C22.1049 9.8403 22.0657 9.83736 22.0272 9.84217C21.9886 9.84698 21.9514 9.85945 21.9177 9.87884C21.884 9.89823 21.8545 9.92415 21.831 9.95508C21.8074 9.98601 21.7903 10.0213 21.7806 10.059C21.7708 10.0966 21.7687 10.1358 21.7744 10.1743C21.78 10.2128 21.7933 10.2497 21.8134 10.283L22.4716 11.4226ZM24.3611 11.223C24.3997 11.2231 24.4379 11.2156 24.4736 11.2009C24.5092 11.1862 24.5416 11.1646 24.5689 11.1373C24.5962 11.11 24.6178 11.0776 24.6325 11.0419C24.6472 11.0063 24.6547 10.9681 24.6546 10.9295V9.62699C24.6546 9.54915 24.6237 9.4745 24.5687 9.41946C24.5136 9.36442 24.439 9.3335 24.3611 9.3335C24.2833 9.3335 24.2086 9.36442 24.1536 9.41946C24.0986 9.4745 24.0676 9.54915 24.0676 9.62699V10.9295C24.0676 10.968 24.0752 11.0062 24.09 11.0418C24.1047 11.0774 24.1263 11.1097 24.1536 11.137C24.1808 11.1642 24.2132 11.1859 24.2488 11.2006C24.2844 11.2154 24.3226 11.223 24.3611 11.223ZM20.1875 11.98L21.269 12.6051C21.3023 12.6253 21.3394 12.6387 21.378 12.6444C21.4165 12.6502 21.4559 12.6481 21.4937 12.6385C21.5315 12.6288 21.567 12.6117 21.598 12.5881C21.6291 12.5646 21.6552 12.535 21.6748 12.5013C21.6943 12.4675 21.7069 12.4302 21.7118 12.3915C21.7167 12.3528 21.7139 12.3135 21.7034 12.2759C21.693 12.2383 21.6751 12.2032 21.6509 12.1726C21.6267 12.142 21.5966 12.1166 21.5625 12.0977L20.481 11.4739C20.4139 11.435 20.3341 11.4243 20.2591 11.4442C20.1841 11.4642 20.1201 11.5131 20.0812 11.5802C20.0423 11.6474 20.0316 11.7272 20.0515 11.8022C20.0715 11.8772 20.1204 11.9412 20.1875 11.9801V11.98Z" fill="#F0CC25"/>
</g>
<defs>
<clipPath id="clip0_86_471">
<rect width="21.4667" height="21.4667" fill="white" transform="translate(10.2667 9.3335)"/>
</clipPath>
</defs>
</svg>
