<svg width="106" height="106" viewBox="0 0 106 106" fill="none" xmlns="http://www.w3.org/2000/svg">
<g opacity="0.04" filter="url(#filter0_d_1_6222)">
<circle cx="53" cy="49" r="49" fill="#F0CC25"/>
<circle cx="53" cy="49" r="48.5" stroke="black"/>
</g>
<path fill-rule="evenodd" clip-rule="evenodd" d="M53 28.3955C45.8642 28.3955 40.0625 34.249 40.0625 41.4691C40.0625 43.9148 41.1397 46.9488 42.7075 49.9753C46.1594 56.6395 51.9094 63.3517 51.9094 63.3517C52.0444 63.5088 52.2117 63.635 52.3999 63.7214C52.5882 63.8079 52.7929 63.8527 53 63.8527C53.2071 63.8527 53.4118 63.8079 53.6001 63.7214C53.7883 63.635 53.9556 63.5088 54.0906 63.3517C54.0906 63.3517 59.8406 56.6395 63.2925 49.9753C64.8603 46.9488 65.9375 43.9148 65.9375 41.4691C65.9375 34.249 60.1357 28.3955 53 28.3955ZM53 36.0622C51.6267 36.0992 50.3221 36.6708 49.3638 37.6552C48.4056 38.6396 47.8694 39.9592 47.8694 41.333C47.8694 42.7068 48.4056 44.0264 49.3638 45.0108C50.3221 45.9952 51.6267 46.5668 53 46.6038C54.3733 46.5668 55.6779 45.9952 56.6362 45.0108C57.5944 44.0264 58.1306 42.7068 58.1306 41.333C58.1306 39.9592 57.5944 38.6396 56.6362 37.6552C55.6779 36.6708 54.3733 36.0992 53 36.0622Z" fill="#F0CC25"/>
<path fill-rule="evenodd" clip-rule="evenodd" d="M62.1694 59.3054C63.7277 59.773 65.0118 60.3519 65.8992 61.0304C66.4742 61.4674 66.8959 61.8948 66.8959 62.4161C66.8959 62.7228 66.7215 63.0007 66.4762 63.2786C66.0698 63.7367 65.4661 64.1488 64.7186 64.5321C62.0774 65.8834 57.8071 66.7286 53.0001 66.7286C48.1931 66.7286 43.9227 65.8834 41.2816 64.5321C40.5341 64.1488 39.9303 63.7367 39.524 63.2786C39.2787 63.0007 39.1042 62.7228 39.1042 62.4161C39.1042 61.8948 39.5259 61.4674 40.1009 61.0304C40.9883 60.3519 42.2725 59.773 43.8307 59.3054C44.196 59.1956 44.5026 58.9452 44.6833 58.6093C44.8639 58.2734 44.9037 57.8795 44.7939 57.5142C44.6841 57.149 44.4337 56.8423 44.0978 56.6617C43.7619 56.4811 43.368 56.4413 43.0027 56.5511C40.6299 57.266 38.7861 58.2455 37.6782 59.3284C36.7046 60.2771 36.2292 61.339 36.2292 62.4161C36.2292 63.7616 36.9902 65.1033 38.5369 66.2226C41.2509 68.1853 46.7019 69.6036 53.0001 69.6036C59.2982 69.6036 64.7492 68.1853 67.4632 66.2226C69.01 65.1033 69.7709 63.7616 69.7709 62.4161C69.7709 61.339 69.2956 60.2771 68.3219 59.3284C67.2141 58.2455 65.3702 57.266 62.9974 56.5511C62.8166 56.4968 62.6268 56.4785 62.4389 56.4975C62.251 56.5165 62.0687 56.5723 61.9024 56.6617C61.7361 56.7512 61.589 56.8725 61.4695 57.0188C61.3501 57.165 61.2607 57.3334 61.2063 57.5142C61.1519 57.6951 61.1337 57.8849 61.1527 58.0728C61.1717 58.2606 61.2275 58.443 61.3169 58.6093C61.4063 58.7756 61.5277 58.9227 61.6739 59.0421C61.8202 59.1615 61.9886 59.251 62.1694 59.3054Z" fill="#F0CC25"/>
<defs>
<filter id="filter0_d_1_6222" x="0" y="0" width="106" height="106" filterUnits="userSpaceOnUse" color-interpolation-filters="sRGB">
<feFlood flood-opacity="0" result="BackgroundImageFix"/>
<feColorMatrix in="SourceAlpha" type="matrix" values="0 0 0 0 0 0 0 0 0 0 0 0 0 0 0 0 0 0 127 0" result="hardAlpha"/>
<feOffset dy="4"/>
<feGaussianBlur stdDeviation="2"/>
<feComposite in2="hardAlpha" operator="out"/>
<feColorMatrix type="matrix" values="0 0 0 0 0 0 0 0 0 0 0 0 0 0 0 0 0 0 0.25 0"/>
<feBlend mode="normal" in2="BackgroundImageFix" result="effect1_dropShadow_1_6222"/>
<feBlend mode="normal" in="SourceGraphic" in2="effect1_dropShadow_1_6222" result="shape"/>
</filter>
</defs>
</svg>
