<svg width="42" height="42" viewBox="0 0 42 42" fill="none" xmlns="http://www.w3.org/2000/svg">
<path d="M10.2011 4.83831C13.3976 2.70249 17.1556 1.5625 21 1.5625C26.1552 1.5625 31.0992 3.61037 34.7444 7.25561C38.3896 10.9008 40.4375 15.8449 40.4375 21C40.4375 24.8444 39.2975 28.6024 37.1617 31.7989C35.0259 34.9954 31.9902 37.4867 28.4384 38.9579C24.8867 40.4291 20.9784 40.814 17.2079 40.064C13.4374 39.314 9.974 37.4628 7.25562 34.7444C4.53724 32.026 2.686 28.5626 1.93599 24.7921C1.18599 21.0216 1.57092 17.1133 3.0421 13.5616C4.51328 10.0099 7.00463 6.97413 10.2011 4.83831Z" fill="white" stroke="#EAEAEA" stroke-width="0.5"/>
<path d="M21 11.1611C19.2208 11.1611 17.5145 11.8679 16.2565 13.126C14.9984 14.384 14.2916 16.0903 14.2916 17.8695V23.102L12.8069 25.3381C12.6289 25.6125 12.5279 25.9297 12.5146 26.2564C12.5012 26.5832 12.5759 26.9076 12.7309 27.1956C12.8859 27.4836 13.1154 27.7247 13.3955 27.8935C13.6756 28.0624 13.9959 28.1529 14.3229 28.1556H27.677C28.0061 28.1545 28.3289 28.0644 28.611 27.8948C28.8931 27.7252 29.1241 27.4825 29.2795 27.1924C29.4349 26.9022 29.5089 26.5754 29.4937 26.2466C29.4785 25.9178 29.3746 25.5992 29.1931 25.3247L27.7083 23.102V17.8695C27.7083 16.0903 27.0015 14.384 25.7435 13.126C24.4854 11.8679 22.7791 11.1611 21 11.1611ZM21 30.8389C21.5543 30.8383 22.0949 30.666 22.5474 30.3456C22.9998 30.0253 23.342 29.5727 23.5268 29.05H18.4732C18.658 29.5727 19.0001 30.0253 19.4526 30.3456C19.905 30.666 20.4456 30.8383 21 30.8389Z" fill="#F0CC25"/>
</svg>
